<mxfile host="app.diagrams.net" agent="Mozilla/5.0 (Windows NT 10.0; Win64; x64) AppleWebKit/537.36 (KHTML, like Gecko) Chrome/134.0.0.0 Safari/537.36" version="26.2.10">
  <diagram id="prtHgNgQTEPvFCAcTncT" name="Page-1">
    <mxGraphModel dx="1190" dy="654" grid="1" gridSize="10" guides="1" tooltips="1" connect="1" arrows="1" fold="1" page="1" pageScale="1" pageWidth="827" pageHeight="1169" math="0" shadow="0">
      <root>
        <mxCell id="0" />
        <mxCell id="1" parent="0" />
        <mxCell id="2" value="nRF54L15 DK" style="rounded=1;whiteSpace=wrap;html=1;fillColor=#00A9CE;strokeColor=#0033A0;verticalAlign=top;fontStyle=1;fontSize=14;fontColor=#FFFFFF;" parent="1" vertex="1">
          <mxGeometry x="320" y="80" width="210" height="350" as="geometry" />
        </mxCell>
        <mxCell id="3" value="Settings&lt;br&gt;Persistent Storage" style="rounded=1;whiteSpace=wrap;html=1;fillColor=#dae8fc;strokeColor=#6c8ebf;" parent="1" vertex="1">
          <mxGeometry x="350" y="110" width="100" height="60" as="geometry" />
        </mxCell>
        <mxCell id="4" value="BLE Service&lt;br&gt;Characteristics" style="rounded=1;whiteSpace=wrap;html=1;fillColor=#3399FF;strokeColor=#001135;fontColor=#FFFFFF;" parent="1" vertex="1">
          <mxGeometry x="350" y="230" width="100" height="80" as="geometry" />
        </mxCell>
        <mxCell id="BGg8Ko5Y6bmcOQIVmoMP-25" value="Remove &lt;br&gt;bonds" style="edgeStyle=orthogonalEdgeStyle;rounded=0;orthogonalLoop=1;jettySize=auto;html=1;exitX=0.5;exitY=0;exitDx=0;exitDy=0;entryX=1;entryY=0.5;entryDx=0;entryDy=0;align=center;verticalAlign=middle;fontFamily=Helvetica;fontSize=11;fontColor=#333333;labelBackgroundColor=#00A9CE;resizable=0;fillColor=none;gradientColor=none;" edge="1" parent="1" source="new-button-box" target="3">
          <mxGeometry relative="1" as="geometry" />
        </mxCell>
        <mxCell id="new-button-box" value="Button" style="rounded=1;whiteSpace=wrap;html=1;fillColor=#dae8fc;strokeColor=#6c8ebf;" parent="1" vertex="1">
          <mxGeometry x="490" y="190" width="50" height="60" as="geometry" />
        </mxCell>
        <mxCell id="5" value="NFC&lt;br&gt;Tag Emulation" style="rounded=1;whiteSpace=wrap;html=1;fillColor=#dae8fc;strokeColor=#6c8ebf;" parent="1" vertex="1">
          <mxGeometry x="350" y="360" width="100" height="50" as="geometry" />
        </mxCell>
        <mxCell id="8" value="" style="endArrow=classic;html=1;rounded=0;entryX=0;entryY=0.5;entryDx=0;entryDy=0;dashed=1;strokeWidth=2;strokeColor=#0066CC;" parent="1" edge="1">
          <mxGeometry width="50" height="50" relative="1" as="geometry">
            <mxPoint x="200" y="280" as="sourcePoint" />
            <mxPoint x="350" y="280" as="targetPoint" />
          </mxGeometry>
        </mxCell>
        <mxCell id="9" value="BLE" style="edgeLabel;html=1;align=center;verticalAlign=middle;resizable=0;points=[];fontColor=#0066CC;fontStyle=1" parent="8" vertex="1" connectable="0">
          <mxGeometry x="-0.0267" y="-2" relative="1" as="geometry">
            <mxPoint x="-23" y="-22" as="offset" />
          </mxGeometry>
        </mxCell>
        <mxCell id="16" value="Read/Write&lt;br&gt;Contact Info" style="edgeLabel;html=1;align=center;verticalAlign=middle;resizable=0;points=[];rotation=0;" parent="8" vertex="1" connectable="0">
          <mxGeometry x="0.1278" y="-2" relative="1" as="geometry">
            <mxPoint x="-31" y="-2" as="offset" />
          </mxGeometry>
        </mxCell>
        <mxCell id="10" value="" style="endArrow=classic;html=1;rounded=0;exitX=0.5;exitY=1;exitDx=0;exitDy=0;entryX=0.5;entryY=0;entryDx=0;entryDy=0;startArrow=classic;startFill=1;" parent="1" source="3" target="4" edge="1">
          <mxGeometry width="50" height="50" relative="1" as="geometry">
            <mxPoint x="390" y="320" as="sourcePoint" />
            <mxPoint x="440" y="270" as="targetPoint" />
          </mxGeometry>
        </mxCell>
        <mxCell id="11" value="Read/Write" style="edgeLabel;html=1;align=center;verticalAlign=middle;resizable=0;points=[];labelBackgroundColor=#00A9CE;fontColor=#333333;textShadow=0;" parent="10" vertex="1" connectable="0">
          <mxGeometry x="-0.28" relative="1" as="geometry">
            <mxPoint y="6" as="offset" />
          </mxGeometry>
        </mxCell>
        <mxCell id="12" value="" style="endArrow=classic;html=1;rounded=0;exitX=0.5;exitY=1;exitDx=0;exitDy=0;entryX=0.5;entryY=0;entryDx=0;entryDy=0;" parent="1" source="4" target="5" edge="1">
          <mxGeometry width="50" height="50" relative="1" as="geometry">
            <mxPoint x="390" y="320" as="sourcePoint" />
            <mxPoint x="440" y="270" as="targetPoint" />
          </mxGeometry>
        </mxCell>
        <mxCell id="13" value="Configure" style="edgeLabel;html=1;align=center;verticalAlign=middle;resizable=0;points=[];fontFamily=Helvetica;fontSize=11;fontColor=#333333;labelBackgroundColor=#00A9CE;fillColor=none;gradientColor=none;" parent="12" vertex="1" connectable="0">
          <mxGeometry x="-0.32" y="1" relative="1" as="geometry">
            <mxPoint y="6" as="offset" />
          </mxGeometry>
        </mxCell>
        <mxCell id="14" value="" style="endArrow=classic;html=1;rounded=0;exitX=1;exitY=0.5;exitDx=0;exitDy=0;dashed=1;strokeWidth=2;strokeColor=#CC0000;" parent="1" source="5" edge="1">
          <mxGeometry width="50" height="50" relative="1" as="geometry">
            <mxPoint x="390" y="320" as="sourcePoint" />
            <mxPoint x="650" y="385" as="targetPoint" />
          </mxGeometry>
        </mxCell>
        <mxCell id="15" value="NFC" style="edgeLabel;html=1;align=center;verticalAlign=middle;resizable=0;points=[];fontColor=#CC0000;fontStyle=1" parent="14" vertex="1" connectable="0">
          <mxGeometry x="0.2603" y="1" relative="1" as="geometry">
            <mxPoint x="-13" y="-14" as="offset" />
          </mxGeometry>
        </mxCell>
        <mxCell id="17" value="Read Contact Info" style="edgeLabel;html=1;align=center;verticalAlign=middle;resizable=0;points=[];rotation=0;" parent="14" vertex="1" connectable="0">
          <mxGeometry x="0.0557" y="3" relative="1" as="geometry">
            <mxPoint x="29" y="3" as="offset" />
          </mxGeometry>
        </mxCell>
        <mxCell id="18" value="Legend" style="swimlane;fontStyle=0;childLayout=stackLayout;horizontal=1;startSize=26;horizontalStack=0;resizeParent=1;resizeParentMax=0;resizeLast=0;collapsible=1;marginBottom=0;align=center;fontSize=12;fillColor=#0033A0;fontColor=#FFFFFF;" parent="1" vertex="1">
          <mxGeometry x="570" y="80" width="150" height="104" as="geometry">
            <mxRectangle x="570" y="80" width="80" height="30" as="alternateBounds" />
          </mxGeometry>
        </mxCell>
        <mxCell id="22" value="" style="endArrow=none;dashed=1;html=1;rounded=0;strokeWidth=2;strokeColor=#0066CC;" parent="18" edge="1">
          <mxGeometry width="50" height="50" relative="1" as="geometry">
            <mxPoint x="120" y="38.660000000000025" as="sourcePoint" />
            <mxPoint x="140" y="38.660000000000025" as="targetPoint" />
          </mxGeometry>
        </mxCell>
        <mxCell id="19" value="BLE Communication" style="text;strokeColor=none;fillColor=none;spacingLeft=4;spacingRight=4;overflow=hidden;rotatable=0;points=[[0,0.5],[1,0.5]];portConstraint=eastwest;fontSize=10;" parent="18" vertex="1">
          <mxGeometry y="26" width="150" height="26" as="geometry" />
        </mxCell>
        <mxCell id="20" value="NFC Communication" style="text;strokeColor=none;fillColor=none;spacingLeft=4;spacingRight=4;overflow=hidden;rotatable=0;points=[[0,0.5],[1,0.5]];portConstraint=eastwest;fontSize=10;" parent="18" vertex="1">
          <mxGeometry y="52" width="150" height="26" as="geometry" />
        </mxCell>
        <mxCell id="23" value="" style="endArrow=none;dashed=1;html=1;rounded=0;strokeWidth=2;strokeColor=#CC0000;" parent="18" edge="1">
          <mxGeometry width="50" height="50" relative="1" as="geometry">
            <mxPoint x="120" y="64.66000000000003" as="sourcePoint" />
            <mxPoint x="140" y="64.66000000000003" as="targetPoint" />
          </mxGeometry>
        </mxCell>
        <mxCell id="24" value="" style="endArrow=none;html=1;rounded=0;" parent="18" edge="1">
          <mxGeometry width="50" height="50" relative="1" as="geometry">
            <mxPoint x="120" y="90.66000000000003" as="sourcePoint" />
            <mxPoint x="140" y="90.66000000000003" as="targetPoint" />
          </mxGeometry>
        </mxCell>
        <mxCell id="21" value="Internal Data Flow" style="text;strokeColor=none;fillColor=none;spacingLeft=4;spacingRight=4;overflow=hidden;rotatable=0;points=[[0,0.5],[1,0.5]];portConstraint=eastwest;fontSize=10;" parent="18" vertex="1">
          <mxGeometry y="78" width="150" height="26" as="geometry" />
        </mxCell>
        <mxCell id="25" value="NFC Business Card &lt;br&gt;Application Block Diagram" style="text;html=1;strokeColor=none;fillColor=none;align=center;verticalAlign=middle;whiteSpace=wrap;rounded=0;fontSize=20;fontStyle=1;fontColor=#0033A0;" parent="1" vertex="1">
          <mxGeometry x="110" y="20" width="630" height="30" as="geometry" />
        </mxCell>
        <mxCell id="c4wlR96kKt-sZquxOOHV-25" value="Mobile Phone" style="sketch=0;aspect=fixed;pointerEvents=1;shadow=0;dashed=0;html=1;strokeColor=none;labelPosition=center;verticalLabelPosition=bottom;verticalAlign=top;align=center;fillColor=#D0DF00;shape=mxgraph.azure.mobile" parent="1" vertex="1">
          <mxGeometry x="650" y="350" width="49" height="70" as="geometry" />
        </mxCell>
        <mxCell id="c4wlR96kKt-sZquxOOHV-26" value="Mobile Phone" style="sketch=0;aspect=fixed;pointerEvents=1;shadow=0;dashed=0;html=1;strokeColor=none;labelPosition=center;verticalLabelPosition=bottom;verticalAlign=top;align=center;fillColor=#0033A0;shape=mxgraph.azure.mobile" parent="1" vertex="1">
          <mxGeometry x="140" y="250" width="49" height="70" as="geometry" />
        </mxCell>
        <mxCell id="BGg8Ko5Y6bmcOQIVmoMP-26" value="LED" style="rounded=1;whiteSpace=wrap;html=1;fillColor=#dae8fc;strokeColor=#6c8ebf;" vertex="1" parent="1">
          <mxGeometry x="490" y="290" width="50" height="60" as="geometry" />
        </mxCell>
      </root>
    </mxGraphModel>
  </diagram>
</mxfile>
